<svg id="Capa_1" data-name="Capa 1" xmlns="http://www.w3.org/2000/svg" viewBox="0 0 100 100"><circle cx="50.31" cy="47.16" r="38.83" fill="#999"/><path d="M38.58,58.27q1.86-3.84,7.28-7l5.38-3.11a25.2,25.2,0,0,0,5.07-3.59,7.86,7.86,0,0,0,.2-10.91,7.64,7.64,0,0,0-5.61-2.06q-5.19,0-7.18,3.93a14.1,14.1,0,0,0-1.17,5.85H37.42a18,18,0,0,1,1.93-8.55Q42.64,27,50.93,27c4.6,0,8,1.24,10.08,3.73A12.46,12.46,0,0,1,64.19,39a11.25,11.25,0,0,1-3.39,8.24,33.31,33.31,0,0,1-7,4.83l-3.84,2.13a25.51,25.51,0,0,0-4.32,2.88,10.55,10.55,0,0,0-3.53,5.41H64V67.3H36.44A23.34,23.34,0,0,1,38.58,58.27Z" fill="#fff"/></svg>