<svg id="Capa_1" data-name="Capa 1" xmlns="http://www.w3.org/2000/svg" viewBox="0 0 256.57 500.57"><g opacity="0.3"><path d="M41.18,306.05q11.51-27.35,54.32-57.9,37.16-26.6,48.09-38.1,16.78-17.91,16.79-39.23,0-17.34-9.62-28.85t-27.54-11.51q-24.51,0-33.38,18.3-5.09,10.56-6,33.57H31.57q1.3-34.89,12.64-56.39Q65.74,85,120.68,85q43.41,0,69.09,24t25.68,63.65q0,30.36-18.14,53.94-11.91,15.65-39.12,34.89l-21.54,15.27Q116.43,291.15,109,297.56a60.74,60.74,0,0,0-12.55,14.9H215.83V359.8H28.55Q29.3,330.37,41.18,306.05Z" fill="#ccc"/></g></svg>