<svg id="Capa_1" data-name="Capa 1" xmlns="http://www.w3.org/2000/svg" viewBox="0 0 100 100"><circle cx="50.14" cy="47.16" r="38.83" fill="#999"/><path d="M39.32,63.89a14.49,14.49,0,0,1-3.21-9.51h5.27A13.14,13.14,0,0,0,42.84,60q2,3.16,7.09,3.17a9.31,9.31,0,0,0,6.39-2.13,7,7,0,0,0,2.41-5.5c0-2.76-.84-4.7-2.54-5.8a12.84,12.84,0,0,0-7-1.65h-1l-1,0V43.72q.78.09,1.32.12c.35,0,.74,0,1.15,0A10.47,10.47,0,0,0,54.19,43q3.2-1.57,3.2-5.61a5.46,5.46,0,0,0-2.13-4.62,7.93,7.93,0,0,0-5-1.63c-3.36,0-5.69,1.12-7,3.36a11.5,11.5,0,0,0-1.21,5.27h-5a15.18,15.18,0,0,1,1.79-7.62Q42,26.51,49.76,26.51q6.14,0,9.5,2.74t3.37,7.92a8.86,8.86,0,0,1-2,6,8.37,8.37,0,0,1-3.2,2.25,8.71,8.71,0,0,1,5,3.35,10.08,10.08,0,0,1,1.78,6.06,12.38,12.38,0,0,1-3.78,9.37Q56.6,67.8,49.65,67.8,42.53,67.8,39.32,63.89Z" fill="#fff"/></svg>