<svg id="Capa_1" data-name="Capa 1" xmlns="http://www.w3.org/2000/svg" viewBox="0 0 256.57 500.57"><g opacity="0.3"><path d="M79.47,272.48q0,16.39,5.27,27.15,9.78,19.81,35.56,19.81a39.34,39.34,0,0,0,27.56-10.85q11.76-10.84,11.76-31.21,0-27-21.81-36-12.41-5.1-39.1-5.1V197.79q26.12-.37,36.46-5.09Q153,184.78,153,160.64q0-15.66-9.12-25.46t-25.68-9.81q-19,0-27.93,12.07t-8.56,32.25H31.57a134.7,134.7,0,0,1,7-38.66q6.59-16,20.72-29.61A72.09,72.09,0,0,1,84.31,86.71q14.52-5.1,35.61-5.09,39.2,0,63.21,20.27t24,54.41q0,24.15-14.33,40.74Q183.76,207.4,174,211.18q7.35,0,21.12,12.64,20.55,19.05,20.56,52.05,0,34.71-24,61t-71.12,26.31q-58,0-80.64-37.91Q28,305.11,26.66,272.48Z" fill="#ccc"/></g></svg>