<svg id="Capa_1" data-name="Capa 1" xmlns="http://www.w3.org/2000/svg" viewBox="0 0 100 100"><circle cx="50.21" cy="47.16" r="38.83" fill="#36f"/><path d="M41.64,56.16a7,7,0,0,0,4,6,9.7,9.7,0,0,0,4.15.84c3,0,5.21-1,6.65-2.86a10.34,10.34,0,0,0,2.16-6.34A8.28,8.28,0,0,0,56,47.27,8.91,8.91,0,0,0,49.88,45a9.28,9.28,0,0,0-4.47,1,9.45,9.45,0,0,0-3.18,2.8l-4.38-.25,3.06-21.61H61.76V31.8H44.69L43,43a12.42,12.42,0,0,1,2.66-1.59,13.5,13.5,0,0,1,5.19-.93A13.28,13.28,0,0,1,60.19,44,11.77,11.77,0,0,1,64,53a15.49,15.49,0,0,1-3.51,10Q57,67.4,49.29,67.4a14.33,14.33,0,0,1-8.68-2.76q-3.77-2.76-4.22-8.48Z" fill="#fff"/></svg>