<svg id="Capa_1" data-name="Capa 1" xmlns="http://www.w3.org/2000/svg" viewBox="0 0 256.57 500.57"><g opacity="0.3"><path d="M84.63,287.94q3.2,17.55,12.23,27.07t26.34,9.52q19.94,0,30.38-14T164,275.12q0-20.94-9.78-35.36t-30.48-14.43a52.38,52.38,0,0,0-16.93,2.45,33.69,33.69,0,0,0-19,16.79L39.64,242.3,58.83,91.24H209.29v45.64H97.61l-9.79,59.78q12.44-8.1,19.4-10.75,11.69-4.33,28.44-4.34,33.9,0,59.14,22.82T220,270.78q0,37.91-24.31,67.71T123,368.28q-39,0-64.06-20.93T31.06,287.94Z" fill="#ccc"/></g></svg>