<svg id="Capa_1" data-name="Capa 1" xmlns="http://www.w3.org/2000/svg" viewBox="0 0 100 100"><circle cx="49.59" cy="47.83" r="38.83" fill="#999"/><path d="M59.83,29.47a11.77,11.77,0,0,1,2.65,7.19h-5a9.1,9.1,0,0,0-1.43-3.72,6.33,6.33,0,0,0-5.52-2.53,7.67,7.67,0,0,0-6.73,3.91Q41.32,38.24,41,45.52a10.94,10.94,0,0,1,4.37-3.81,12.57,12.57,0,0,1,5.38-1.12,13.06,13.06,0,0,1,8.8,3.22q3.77,3.22,3.76,9.62a14.59,14.59,0,0,1-3.56,9.68q-3.55,4.22-10.15,4.22a13,13,0,0,1-9.72-4.28q-4.1-4.26-4.1-14.39A38.61,38.61,0,0,1,37.65,36q3.49-10,12.81-10Q57.18,26,59.83,29.47Zm-3.78,30.7a10.34,10.34,0,0,0,2-6.32A10.79,10.79,0,0,0,56.26,48q-1.77-2.78-6.42-2.78a8.38,8.38,0,0,0-5.7,2.15q-2.46,2.16-2.46,6.51a9.5,9.5,0,0,0,2.23,6.4,7.73,7.73,0,0,0,6.18,2.6A7,7,0,0,0,56.05,60.17Z" fill="#fff"/></svg>