<svg id="Capa_1" data-name="Capa 1" xmlns="http://www.w3.org/2000/svg" viewBox="0 0 256.57 500.57"><g opacity="0.3"><path d="M158.11,159.6q0-6.6-5.09-14.52-8.67-12.83-26.21-12.82-26.22,0-37.34,29.42-6,16.22-8.3,47.9a60.33,60.33,0,0,1,23.19-17.35q13.2-5.47,30.18-5.47,36.39,0,59.69,24.71t23.29,63.18q0,38.28-22.82,67.51T123.79,371.4q-51.67,0-76.19-43.19-19.05-33.76-19-87.13,0-31.31,2.64-50.92,4.71-34.89,18.29-58.09a93.68,93.68,0,0,1,30.65-31.88q19-12.06,45.36-12.07,38.08,0,60.73,19.52t25.46,52ZM94.37,313.69a37.91,37.91,0,0,0,30.17,13.95q17.92,0,28.2-13.48t10.28-35q0-23.94-11.69-36.68t-28.67-12.73a38.29,38.29,0,0,0-24.33,8.3q-15.84,12.25-15.84,39.6Q82.49,299.73,94.37,313.69Z" fill="#ccc"/></g></svg>